
<svg width="62" height="119" viewBox="0 0 62 119" fill="none" xmlns="http://www.w3.org/2000/svg">
<g clip-path="url(#clip0_51_560)">
<path d="M12.82 117.37C25.4643 119.539 38.3857 119.539 51.03 117.37C54.97 116.67 58.13 112.2 58.13 107.69L58.13 13.14C58.13 8.63001 54.97 4.14 51.03 3.46C38.3857 1.29099 25.4643 1.29099 12.82 3.46C8.88002 4.15999 5.72001 8.63 5.72001 13.14L5.72 107.69C5.72 112.2 8.88001 116.67 12.82 117.37Z" fill="#29297D"/>
<path d="M31.93 5.97999C38.37 5.98 44.37 6.55 44.42 6.56L44.42 6.94C44.36 6.94 38.42 6.36 31.96 6.36C25.5 6.36 19.13 6.93 19.06 6.94L19.06 6.56C19.06 6.56 25.48 5.97999 31.93 5.97999Z" fill="#111133"/>
<g style="mix-blend-mode:screen">
<path d="M19.14 5.59L21.28 17.22L21.28 27.29L20.74 17.28L17.85 6.17001L19.14 5.59Z" fill="#18184A"/>
</g>
<g style="mix-blend-mode:screen">
<path d="M44.11 5.59L42.05 17.22L42.05 27.29L42.57 17.28L45.35 6.17001L44.11 5.59Z" fill="#18184A"/>
</g>
<path d="M9.5732 39.0012L11.5604 10.4402L11.1813 10.4139L9.19412 38.9748L9.5732 39.0012Z" fill="#111133"/>
<path d="M53.4829 38.9212L53.8629 38.8946L51.8595 10.2746L51.4795 10.3012L53.4829 38.9212Z" fill="#111133"/>
<path d="M51.02 3.46001C38.3791 1.28999 25.4609 1.28999 12.82 3.46C8.88001 4.16 5.71001 8.63001 5.71001 13.14L5.71001 18.23C5.71001 13.72 8.88001 7.05001 12.82 6.36001C25.46 4.18001 38.38 4.18001 51.02 6.36002C54.96 7.05002 58.13 13.72 58.13 18.23L58.13 13.14C58.16 8.63001 54.96 4.16001 51.02 3.46001Z" fill="#639ADB"/>
<path d="M51.02 3.46001C38.3791 1.28999 25.4609 1.28999 12.82 3.46C8.88001 4.16 5.71001 8.63001 5.71001 13.14L5.71001 18.23C5.71001 13.72 8.88001 7.05001 12.82 6.36001C25.46 4.18001 38.38 4.18001 51.02 6.36002C54.96 7.05002 58.13 13.72 58.13 18.23L58.13 13.14C58.16 8.63001 54.96 4.16001 51.02 3.46001Z" fill="#18184A"/>
<path d="M49.04 2.05002C37.7308 -0.129954 26.1093 -0.129955 14.8 2.05001C11.27 2.75001 8.44003 7.22001 8.44003 11.73L8.44003 16.82C8.44003 12.31 11.27 5.64001 14.8 4.95001C26.1093 2.77004 37.7308 2.77004 49.04 4.95001C52.57 5.64001 55.41 12.31 55.41 16.82L55.41 11.73C55.41 7.22001 52.57 2.75002 49.04 2.05002Z" fill="#060612"/>
<path d="M51.03 3.46001L50.77 3.46001L50.98 4.96001C50.98 4.96001 55.05 10.13 55.62 16.14C56.19 22.15 54.44 31.29 54.44 31.29L48.68 46.56C48.68 46.56 50.16 57.43 49.94 62.91C49.72 68.39 49.53 97.38 49.53 100.13C49.4325 101.108 49.1328 102.054 48.65 102.91C47.49 104.56 45.56 106.05 32.46 106.05C19.36 106.05 16.27 105.05 15.2 102.91C14.7172 102.054 14.4176 101.108 14.32 100.13C14.32 97.38 14.13 68.39 13.91 62.91C13.69 57.43 15.16 46.56 15.16 46.56L9.40001 31.2C9.40001 31.2 7.65001 22.07 8.22001 16.05C8.79001 10.03 12.86 4.87001 12.86 4.87001L13.07 3.37001L12.81 3.37001C8.87001 4.07001 5.70001 8.54001 5.70001 13.05L5.70001 107.69C5.70674 109.447 6.15313 111.175 6.99851 112.715C7.84389 114.256 9.06138 115.56 10.54 116.51L14.73 115.26C14.73 115.26 14.07 114.49 13.73 114.04C19.7831 114.605 25.8608 114.865 31.94 114.82C41.19 114.82 50.41 114.01 50.41 114.01L49.41 115.29L53.31 116.51C54.7892 115.56 56.0077 114.256 56.8547 112.716C57.7017 111.175 58.1504 109.448 58.16 107.69L58.16 13.14C58.16 8.63001 54.97 4.16001 51.03 3.46001Z" fill="#18184A"/>
<path d="M50.5 99.39L50.5 61.39L54.88 43.47C54.98 43.05 55.2 42.78 55.45 42.78C55.7 42.78 56.09 43.29 56.09 43.94L56.09 105.49C56.09 105.7 56.09 106.78 56.09 107.06C56.09 107.06 56.09 107.64 55.81 107.49C54.63 106.89 52.18 103.16 51.09 101.42C50.7073 100.812 50.5029 100.109 50.5 99.39Z" fill="#111133"/>
<path d="M51.16 98.89L51.16 61.56L55.5 43.81C55.57 43.52 55.8 43.62 55.8 43.93L55.8 105.2L51.64 100.32C51.321 99.9124 51.1515 99.4076 51.16 98.89V98.89Z" fill="#3D687D"/>
<path d="M53.99 103.1L53.99 49.9L55.48 43.8C55.55 43.51 55.78 43.61 55.78 43.92L55.78 105.2L53.99 103.1Z" fill="#2E4E5E"/>
<g style="mix-blend-mode:screen">
<path d="M52.01 100.64L51.53 100.08L51.53 62.56L55.16 47.84C55.21 47.6 55.41 47.68 55.41 47.94L52.07 62.94L52.01 100.64Z" fill="#3D687D"/>
</g>
<path d="M50.5 75.72L56.08 75.23L56.08 72.46L50.5 71.97L50.5 75.72Z" fill="#111133"/>
<path d="M50.49 74.04L56.08 74.04L56.08 73.66L50.49 73.66L50.49 74.04Z" fill="#00042B"/>
<path d="M5.82392 107.006L8.03131 105.383L7.80619 105.077L5.59879 106.7L5.82392 107.006Z" fill="#111133"/>
<path d="M55.5 42.91L58.17 43.56L58.08 43.93L55.41 43.28L55.5 42.91Z" fill="#111133"/>
<path d="M58.03 108.08L58.22 108.41L52.56 111.71L49.57 115.22L49.28 114.97L52.34 111.39L58.03 108.08Z" fill="#111133"/>
<path d="M5.97 108.08L11.71 111.44L14.75 114.97L14.46 115.22L11.44 111.71L5.78 108.41L5.97 108.08Z" fill="#111133"/>
<path d="M51.02 115.72C38.38 117.9 25.46 117.9 12.82 115.72C8.88001 115.03 5.71001 110.56 5.71001 106.05L5.71001 107.69C5.71001 112.2 8.88001 116.69 12.82 117.37C25.4609 119.54 38.3791 119.54 51.02 117.37C54.96 116.67 58.13 112.2 58.13 107.69L58.13 106.05C58.16 110.56 54.96 115.03 51.02 115.72Z" fill="#060612"/>
<path d="M47.65 46.56C47.5004 46.5748 47.3496 46.5748 47.2 46.56C37.1051 44.6266 26.7349 44.6266 16.64 46.56C16.4904 46.5748 16.3396 46.5748 16.19 46.56C15.6323 46.5387 15.0948 46.3457 14.651 46.0074C14.2071 45.6691 13.8785 45.2021 13.71 44.67C12.35 41.01 10.9 37.32 9.39001 33.67C9.20433 33.2354 9.10861 32.7676 9.10861 32.295C9.10861 31.8224 9.20433 31.3546 9.39001 30.92C9.55434 30.5165 9.81088 30.1571 10.1391 29.8706C10.4673 29.584 10.858 29.3784 11.28 29.27C24.8556 26.2033 38.9444 26.2033 52.52 29.27C52.9433 29.3754 53.3355 29.58 53.6641 29.8669C53.9928 30.1538 54.2484 30.5148 54.41 30.92C54.5957 31.3546 54.6914 31.8224 54.6914 32.295C54.6914 32.7676 54.5957 33.2354 54.41 33.67C52.91 37.27 51.46 40.96 50.1 44.67C49.9321 45.1967 49.6076 45.6597 49.1699 45.9973C48.7322 46.335 48.2021 46.5313 47.65 46.56V46.56Z" fill="#111133"/>
<path d="M16.55 45.92C26.7049 43.98 37.1352 43.98 47.29 45.92C47.7864 45.9975 48.2942 45.8936 48.7202 45.6273C49.1463 45.3611 49.4622 44.9502 49.61 44.47C50.9767 40.7833 52.42 37.1167 53.94 33.47C54.0922 33.1451 54.1736 32.7916 54.1788 32.4329C54.184 32.0742 54.1128 31.7185 53.97 31.3894C53.8272 31.0603 53.616 30.7653 53.3505 30.524C53.085 30.2828 52.7713 30.1007 52.43 29.99C38.9332 26.943 24.9268 26.943 11.43 29.99C11.0897 30.1021 10.777 30.2849 10.5124 30.5264C10.2478 30.768 10.0373 31.0627 9.89468 31.3914C9.75207 31.7201 9.68061 32.0752 9.68497 32.4334C9.68934 32.7916 9.76944 33.1449 9.92002 33.47C11.44 37.0967 12.8833 40.7633 14.25 44.47C14.3974 44.9463 14.7102 45.3542 15.132 45.6201C15.5538 45.886 16.0567 45.9924 16.55 45.92Z" fill="#3D687D"/>
<path d="M10.1 33.98C10.241 33.7346 10.4295 33.5199 10.6544 33.3482C10.8793 33.1765 11.1362 33.0513 11.41 32.98C24.9069 29.933 38.9132 29.933 52.41 32.98C52.6839 33.0513 52.9407 33.1765 53.1657 33.3482C53.3906 33.5199 53.579 33.7347 53.72 33.98L53.92 33.48C54.0723 33.1551 54.1537 32.8016 54.1588 32.4429C54.164 32.0842 54.0928 31.7285 53.95 31.3994C53.8072 31.0703 53.5961 30.7753 53.3305 30.534C53.065 30.2928 52.7513 30.1107 52.41 30C38.9132 26.953 24.9069 26.953 11.41 30C11.0698 30.1121 10.757 30.2949 10.4924 30.5364C10.2278 30.778 10.0173 31.0727 9.87469 31.4014C9.73208 31.7301 9.66062 32.0852 9.66499 32.4434C9.66935 32.8016 9.74945 33.1549 9.90002 33.48L10.1 33.98Z" fill="#2E4E5E"/>
<g style="mix-blend-mode:screen">
<path d="M12.71 34.78C12.3 32.53 12.96 31.78 14.53 31.4C24.7088 29.3832 35.1198 28.8008 45.46 29.67C34.7721 28.2419 23.9173 28.6818 13.38 30.97C13.0384 31.0791 12.7237 31.2593 12.4567 31.4987C12.1898 31.7382 11.9765 32.0315 11.831 32.3593C11.6856 32.6871 11.6111 33.042 11.6127 33.4006C11.6142 33.7592 11.6917 34.1135 11.84 34.44C12.76 36.7 13.65 38.97 14.51 41.25C14.16 39.26 13.08 36.82 12.71 34.78Z" fill="#3D687D"/>
</g>
<path d="M31.92 113.56C25.58 113.56 19.2 113.41 12.92 113.13C11.11 113.05 10.8 112.55 10.73 112.13C10.6924 111.935 10.7262 111.732 10.8253 111.56C10.9245 111.387 11.0823 111.256 11.27 111.19C12.66 110.51 13.99 109.82 15.27 109.19C15.9468 108.922 16.6726 108.799 17.4 108.83L17.76 108.83C22.43 109.01 27.2 109.11 31.92 109.11C36.64 109.11 41.41 109.01 46.08 108.83L46.44 108.83C47.1641 108.8 47.8865 108.922 48.56 109.19C49.81 109.87 51.15 110.56 52.56 111.19C52.7496 111.254 52.9097 111.384 53.0107 111.557C53.1118 111.73 53.1471 111.933 53.11 112.13C53.03 112.5 52.72 113 50.91 113.13C44.64 113.45 38.26 113.56 31.92 113.56Z" fill="#111133"/>
<path d="M17.73 109.56C27.14 109.92 36.73 109.92 46.11 109.56C46.8345 109.493 47.5648 109.585 48.25 109.83C49.51 110.497 50.8434 111.183 52.25 111.89C52.81 112.16 52.13 112.49 50.86 112.55C38.34 113.12 25.52 113.12 13 112.55C11.73 112.49 11 112.16 11.61 111.89C13.01 111.223 14.3433 110.537 15.61 109.83C16.289 109.588 17.0122 109.496 17.73 109.56V109.56Z" fill="#3D687D"/>
<path d="M52.24 111.86L51.12 111.3L50.85 111.3C38.33 111.87 25.51 111.87 12.99 111.3L12.72 111.3L11.6 111.86C11.04 112.13 11.72 112.46 12.99 112.52C25.51 113.09 38.33 113.09 50.85 112.52C52.16 112.46 52.8 112.13 52.24 111.86Z" fill="#2E4E5E"/>
<g style="mix-blend-mode:screen">
<path d="M16.45 110.56C17.091 110.334 17.7725 110.245 18.45 110.3C27.36 110.65 36.45 110.65 45.33 110.3C46.0076 110.244 46.6892 110.333 47.33 110.56C48.5641 111.152 49.8451 111.64 51.16 112.02C49.83 111.37 48.57 110.72 47.37 110.02C46.7292 109.793 46.0476 109.704 45.37 109.76C36.46 110.11 27.37 110.11 18.49 109.76C17.8125 109.705 17.131 109.794 16.49 110.02C15.3 110.68 14.03 111.33 12.71 112.02C13.9935 111.634 15.2441 111.145 16.45 110.56V110.56Z" fill="#3D687D"/>
</g>
<path d="M45.06 115.03L49.37 114.56C49.5595 114.523 49.7546 114.526 49.9429 114.568C50.1312 114.61 50.3087 114.692 50.4639 114.806C50.6191 114.921 50.7487 115.067 50.8445 115.235C50.9402 115.402 51 115.588 51.02 115.78L51.02 116.06L43.77 116.82L43.77 116.23C43.8037 115.908 43.9529 115.609 44.1901 115.388C44.4272 115.168 44.7363 115.04 45.06 115.03V115.03Z" fill="#D90502"/>
<path d="M18.64 115.03L14.33 114.59C14.1406 114.553 13.9455 114.556 13.7571 114.598C13.5688 114.64 13.3914 114.722 13.2362 114.836C13.0809 114.951 12.9513 115.097 12.8556 115.265C12.7598 115.432 12.7 115.618 12.68 115.81L12.68 116.09L19.93 116.85L19.93 116.26C19.9032 115.932 19.757 115.626 19.5192 115.399C19.2813 115.173 18.9685 115.041 18.64 115.03V115.03Z" fill="#D90502"/>
<path d="M11.38 10.44L18.9 7.19001C19.5 6.94001 19.55 4.93001 19.14 4.39001C19.0751 4.29915 18.9871 4.22719 18.8852 4.1815C18.7833 4.13581 18.6711 4.11805 18.56 4.13002L11.97 4.98001C11.7928 5.02135 11.6303 5.11025 11.4999 5.23712C11.3695 5.36399 11.2762 5.52403 11.23 5.70001C10.742 6.72008 10.4696 7.82988 10.43 8.96C10.4 9.83 10.74 10.71 11.38 10.44Z" fill="#5888C2"/>
<g style="mix-blend-mode:screen">
<path d="M11.38 10.44L18.7 7.35C18.8549 7.2697 18.991 7.15766 19.0996 7.02116C19.2082 6.88465 19.2868 6.72677 19.3302 6.55784C19.3736 6.3889 19.3809 6.21271 19.3516 6.04076C19.3222 5.86882 19.257 5.70501 19.16 5.56001C19.0951 5.46915 19.0071 5.39718 18.9052 5.35149C18.8033 5.30581 18.6911 5.28805 18.58 5.30001L11.99 6.15C11.8129 6.19134 11.6503 6.28024 11.5199 6.40711C11.3895 6.53398 11.2962 6.69403 11.25 6.87L10.51 9.11001C10.22 9.95001 10.74 10.71 11.38 10.44Z" fill="#A2DFFC"/>
</g>
<g style="mix-blend-mode:screen">
<path d="M18.7 7.35001L11.38 10.44C10.74 10.71 10.22 9.95002 10.49 9.14002L10.99 7.62001C11.0636 7.58946 11.141 7.56927 11.22 7.56001L19.22 6.75002C19.1789 6.88023 19.1116 7.00065 19.0221 7.10384C18.9327 7.20703 18.8231 7.2908 18.7 7.35001Z" fill="#A2DFFC"/>
</g>
<path d="M51.92 10.44L44.52 7.19001C43.93 6.94001 43.88 4.93001 44.28 4.39001C44.3419 4.29837 44.4278 4.22558 44.5284 4.1797C44.629 4.13382 44.7403 4.11663 44.85 4.13002L51.33 4.98001C51.5072 5.02135 51.6697 5.11025 51.8001 5.23712C51.9305 5.36399 52.0238 5.52403 52.07 5.70001C52.5418 6.72483 52.8069 7.83262 52.85 8.96C52.88 9.83 52.55 10.71 51.92 10.44Z" fill="#5888C2"/>
<g style="mix-blend-mode:screen">
<path d="M51.92 10.44L44.71 7.35001C44.5641 7.26471 44.4368 7.15093 44.3357 7.01541C44.2347 6.8799 44.1619 6.72542 44.1218 6.5612C44.0817 6.39698 44.075 6.22637 44.1022 6.05953C44.1294 5.89268 44.1898 5.733 44.28 5.59001C44.3419 5.49837 44.4278 5.4256 44.5284 5.37972C44.629 5.33384 44.7403 5.31664 44.85 5.33002L51.33 6.18001C51.5072 6.22135 51.6697 6.31025 51.8001 6.43712C51.9305 6.56399 52.0238 6.72404 52.07 6.90001L52.8 9.14002C53.06 9.95002 52.55 10.71 51.92 10.44Z" fill="#A2DFFC"/>
</g>
<g style="mix-blend-mode:screen">
<path d="M44.71 7.35001L51.92 10.44C52.55 10.71 53.06 9.95002 52.8 9.14002L52.3 7.62001C52.23 7.58948 52.1559 7.56927 52.08 7.56001L44.18 6.75002C44.2715 7.01161 44.4617 7.22697 44.71 7.35001V7.35001Z" fill="#A2DFFC"/>
</g>
<g style="mix-blend-mode:screen">
<path d="M19.03 51.33L19.03 101.63C19.03 101.63 17.84 81.99 17.84 73.9C17.84 65.81 19.03 51.33 19.03 51.33Z" fill="#18184A"/>
</g>
<g style="mix-blend-mode:screen">
<path d="M43.97 51.33L43.97 101.63C43.97 101.63 45.16 81.99 45.16 73.9C45.16 65.81 43.97 51.33 43.97 51.33Z" fill="#18184A"/>
</g>
<path d="M56.08 74.04L58.12 74.04L58.12 73.66L56.08 73.66L56.08 74.04Z" fill="#111133"/>
<path d="M55.78 49.08L59.78 49.08C60.3635 49.08 60.9231 49.3118 61.3357 49.7244C61.7482 50.1369 61.98 50.6965 61.98 51.28L61.98 51.33L55.78 51.33L55.78 49.08Z" fill="#29297D"/>
<path d="M6.89001 51.33L0.670013 51.33L0.670013 51.28C0.670013 50.6965 0.901801 50.1369 1.31438 49.7244C1.72696 49.3118 2.28654 49.08 2.87001 49.08L6.87001 49.08L6.87001 51.33L6.89001 51.33Z" fill="#29297D"/>
<path d="M5.75815 43.9349L8.11938 43.2814L8.01802 42.9151L5.65679 43.5686L5.75815 43.9349Z" fill="#111133"/>
<path d="M57.9378 107.337L58.162 107.029L55.9426 105.412L55.7184 105.72L57.9378 107.337Z" fill="#111133"/>
<path d="M13.34 99.39L13.34 61.39L8.96003 43.47C8.86003 43.05 8.64003 42.78 8.39003 42.78C8.14003 42.78 7.75003 43.29 7.75003 43.94L7.75002 105.49C7.75002 105.7 7.75002 106.78 7.75002 107.06C7.75002 107.06 7.75003 107.64 8.03003 107.49C9.22003 106.89 11.66 103.16 12.76 101.42C13.1397 100.811 13.3407 100.108 13.34 99.39V99.39Z" fill="#111133"/>
<path d="M12.7 98.89L12.7 61.56L8.37 43.81C8.3 43.52 8.06 43.62 8.06 43.93L8.06 105.2L12.22 100.32C12.5435 99.9148 12.7135 99.4083 12.7 98.89V98.89Z" fill="#3D687D"/>
<path d="M9.85999 103.1L9.85999 49.9L8.36999 43.8C8.29999 43.51 8.06 43.61 8.06 43.92L8.05999 105.2L9.85999 103.1Z" fill="#2E4E5E"/>
<g style="mix-blend-mode:screen">
<path d="M11.84 100.64L12.31 100.08L12.31 62.56L8.71 47.8C8.65 47.56 8.45 47.64 8.45 47.9L11.79 62.9L11.84 100.64Z" fill="#3D687D"/>
</g>
<path d="M13.34 75.72L7.75003 75.23L7.75003 72.46L13.34 71.97L13.34 75.72Z" fill="#111133"/>
<path d="M7.75003 74.04L13.34 74.04L13.34 73.66L7.75003 73.66L7.75003 74.04Z" fill="#00042B"/>
<path d="M5.71 74.04L7.75 74.04L7.75 73.66L5.71 73.66L5.71 74.04Z" fill="#111133"/>
<path d="M16.26 107.32L47.47 107.34L54.07 110.49L53.9 110.83L47.35 107.71L16.34 107.71L9.93001 110.73L9.77001 110.39L16.26 107.32Z" fill="#111133"/>
</g>
<defs>
<clipPath id="clip0_51_560">
<rect width="62" height="119" fill="white" transform="translate(62 119) rotate(-180)"/>
</clipPath>
</defs>
</svg>
