<svg xmlns="http://www.w3.org/2000/svg" viewBox="0 0 18.59 28"><defs><style>.cls-1{fill:none;stroke:#414042;stroke-linecap:round;stroke-linejoin:round;}</style></defs><g id="Capa_2" data-name="Capa 2"><g id="Layer_1" data-name="Layer 1"><circle class="cls-1" cx="7" cy="3" r="2.5"/><path class="cls-1" d="M12.5,24.47A6.5,6.5,0,0,1,1,18.5"/><path class="cls-1" d="M18,25.61l-1.66-6.82a3,3,0,0,0-2.91-2.29h-5V9.07A1.55,1.55,0,0,0,7.35,7.54a1.51,1.51,0,0,0-1.52.52A4.32,4.32,0,0,1,5,9L2.32,10.9a2,2,0,0,0-.82,1.62v4a1,1,0,0,0,2,0v-4l2-1v6a2,2,0,0,0,2,2h6l1.72,6.89A1.47,1.47,0,0,0,17,27.46,1.53,1.53,0,0,0,18,25.61Z"/></g></g></svg>