<svg width="450" height="289" viewBox="0 0 450 289" fill="none" xmlns="http://www.w3.org/2000/svg">
<path d="M450 0H0V289H450V0Z" fill="#52545C"/>
<path d="M14.67 0H0V163.09H14.67V0Z" fill="#55BD74"/>
<path d="M450 0H435.33V163.09H450V0Z" fill="#55BD74"/>
<path d="M418.89 123.21H414.59V137.44H418.89V123.21Z" fill="#E2E2E2"/>
<path d="M418.89 41.76H414.59V55.99H418.89V41.76Z" fill="#E2E2E2"/>
<path d="M418.89 62.12H414.59V76.35H418.89V62.12Z" fill="#E2E2E2"/>
<path d="M418.89 82.48H414.59V96.71H418.89V82.48Z" fill="#E2E2E2"/>
<path d="M418.89 102.85H414.59V117.08H418.89V102.85Z" fill="#E2E2E2"/>
<path d="M418.89 157.8V143.58H414.59V157.8H411.05V161.39H422.43V157.8H418.89Z" fill="#E2E2E2"/>
<path d="M342.2 123.21H337.9V137.44H342.2V123.21Z" fill="#E2E2E2"/>
<path d="M342.2 41.76H337.9V55.99H342.2V41.76Z" fill="#E2E2E2"/>
<path d="M342.2 62.12H337.9V76.35H342.2V62.12Z" fill="#E2E2E2"/>
<path d="M342.2 82.48H337.9V96.71H342.2V82.48Z" fill="#E2E2E2"/>
<path d="M342.2 102.85H337.9V117.08H342.2V102.85Z" fill="#E2E2E2"/>
<path d="M342.19 143.58H337.9V157.8H334.36V161.39H345.73V157.8H342.19V143.58Z" fill="#E2E2E2"/>
<path d="M265.5 123.21H261.2V137.44H265.5V123.21Z" fill="#E2E2E2"/>
<path d="M265.5 41.76H261.2V55.99H265.5V41.76Z" fill="#E2E2E2"/>
<path d="M265.5 62.12H261.2V76.35H265.5V62.12Z" fill="#E2E2E2"/>
<path d="M265.5 82.48H261.2V96.71H265.5V82.48Z" fill="#E2E2E2"/>
<path d="M265.5 102.85H261.2V117.08H265.5V102.85Z" fill="#E2E2E2"/>
<path d="M265.5 143.58H261.2V157.8H257.66V161.39H269.03V157.8H265.5V143.58Z" fill="#E2E2E2"/>
<path d="M188.8 123.21H184.5V137.44H188.8V123.21Z" fill="#E2E2E2"/>
<path d="M188.8 41.76H184.5V55.99H188.8V41.76Z" fill="#E2E2E2"/>
<path d="M188.8 62.12H184.5V76.35H188.8V62.12Z" fill="#E2E2E2"/>
<path d="M188.8 82.48H184.5V96.71H188.8V82.48Z" fill="#E2E2E2"/>
<path d="M188.8 102.85H184.5V117.08H188.8V102.85Z" fill="#E2E2E2"/>
<path d="M188.8 143.58H184.5V157.8H180.97V161.39H192.34V157.8H188.8V143.58Z" fill="#E2E2E2"/>
<path d="M112.11 123.21H107.81V137.44H112.11V123.21Z" fill="#E2E2E2"/>
<path d="M112.11 41.76H107.81V55.99H112.11V41.76Z" fill="#E2E2E2"/>
<path d="M112.11 62.12H107.81V76.35H112.11V62.12Z" fill="#E2E2E2"/>
<path d="M112.11 82.48H107.81V96.71H112.11V82.48Z" fill="#E2E2E2"/>
<path d="M112.11 102.85H107.81V117.08H112.11V102.85Z" fill="#E2E2E2"/>
<path d="M112.1 143.58H107.81V157.8H104.27V161.39H115.64V157.8H112.1V143.58Z" fill="#E2E2E2"/>
<path d="M35.41 123.21H31.11V137.44H35.41V123.21Z" fill="#E2E2E2"/>
<path d="M35.41 22.09H107.81V35.62H112.1V22.09H184.5V35.62H188.8V22.09H261.2V35.62H265.5V22.09H337.9V35.62H342.19V22.09H414.59V35.62H418.89V22.09V17.79H31.11V21.39V35.62H35.41V22.09Z" fill="#E2E2E2"/>
<path d="M35.41 41.76H31.11V55.99H35.41V41.76Z" fill="#E2E2E2"/>
<path d="M35.41 62.12H31.11V76.35H35.41V62.12Z" fill="#E2E2E2"/>
<path d="M35.41 82.48H31.11V96.71H35.41V82.48Z" fill="#E2E2E2"/>
<path d="M35.41 102.85H31.11V117.08H35.41V102.85Z" fill="#E2E2E2"/>
<path d="M35.41 143.58H31.11V157.8H27.57V161.39H38.95V157.8H35.41V143.58Z" fill="#E2E2E2"/>
<path d="M148.3 222.85H133.56V227.15H148.3V222.85Z" fill="#E2E2E2"/>
<path d="M43.22 222.85H28.48V227.15H43.22V222.85Z" fill="#E2E2E2"/>
<path d="M64.23 222.85H49.49V227.15H64.23V222.85Z" fill="#E2E2E2"/>
<path d="M85.25 222.85H70.51V227.15H85.25V222.85Z" fill="#E2E2E2"/>
<path d="M106.27 222.85H91.53V227.15H106.27V222.85Z" fill="#E2E2E2"/>
<path d="M127.28 222.85H112.54V227.15H127.28V222.85Z" fill="#E2E2E2"/>
<path d="M253.39 222.85H238.65V227.15H253.39V222.85Z" fill="#E2E2E2"/>
<path d="M169.32 222.85H154.58V227.15H169.32V222.85Z" fill="#E2E2E2"/>
<path d="M190.34 222.85H175.6V227.15H190.34V222.85Z" fill="#E2E2E2"/>
<path d="M211.35 222.85H196.61V227.15H211.35V222.85Z" fill="#E2E2E2"/>
<path d="M232.37 222.85H217.63V227.15H232.37V222.85Z" fill="#E2E2E2"/>
<path d="M358.47 222.85H343.73V227.15H358.47V222.85Z" fill="#E2E2E2"/>
<path d="M274.41 222.85H259.67V227.15H274.41V222.85Z" fill="#E2E2E2"/>
<path d="M295.42 222.85H280.68V227.15H295.42V222.85Z" fill="#E2E2E2"/>
<path d="M316.44 222.85H301.7V227.15H316.44V222.85Z" fill="#E2E2E2"/>
<path d="M337.46 222.85H322.72V227.15H337.46V222.85Z" fill="#E2E2E2"/>
<path d="M379.49 222.85H364.75V227.15H379.49V222.85Z" fill="#E2E2E2"/>
<path d="M400.51 222.85H385.77V227.15H400.51V222.85Z" fill="#E2E2E2"/>
<path d="M421.53 222.85H406.79V227.15H421.53V222.85Z" fill="#E2E2E2"/>
<g clip-path="url(#clip0_6_306)">
<path d="M436 178.095L436 264L443 264L443 178.095L436 178.095Z" fill="white"/>
<path d="M436 192.695L443 190.813L443 186.268L436 188.149L436 192.695Z" fill="#F15746"/>
<path d="M436 202.741L443 200.859L443 196.313L436 198.195L436 202.741Z" fill="#F15746"/>
<path d="M436 182.427L443 180.545L443 176L436 177.881L436 182.427Z" fill="#F15746"/>
<path d="M436 212.598L443 210.717L443 206.171L436 208.053L436 212.598Z" fill="#F15746"/>
<path d="M436 222.644L443 220.762L443 216.217L436 218.098L436 222.644Z" fill="#F15746"/>
<path d="M436 232.584L443 230.702L443 226.157L436 228.038L436 232.584Z" fill="#F15746"/>
<path d="M436 242.63L443 240.748L443 236.203L436 238.084L436 242.63Z" fill="#F15746"/>
<path d="M436 252.487L443 250.606L443 246.061L436 247.942L436 252.487Z" fill="#F15746"/>
<path d="M436 262.533L443 260.652L443 256.106L436 257.988L436 262.533Z" fill="#F15746"/>
</g>
<rect x="411" y="254" width="38" height="34" fill="#F87618"/>
<path d="M103 151.906C103 154.158 101.819 156 100.375 156H42.625C41.1814 156 40 154.158 40 151.906V29.094C40 26.8417 41.1814 25 42.625 25H100.375C101.819 25 103 26.8417 103 29.094V151.906Z" fill="#325AAA"/>
<path d="M66.7306 69.4903C61.0582 69.4903 56.4436 64.8728 56.4436 59.1976C56.4445 57.534 56.8486 55.8954 57.6213 54.4222C58.394 52.9491 59.5122 51.6854 60.88 50.7395L60.6658 47.0176C56.2 49.2519 53.125 53.8742 53.125 59.1976C53.125 66.7013 59.2288 72.8105 66.7306 72.8105C72.2506 72.8105 77.0062 69.5059 79.1392 64.7732L77.0104 59.5506C76.8232 65.0625 72.2854 69.4903 66.7306 69.4903Z" fill="white"/>
<path d="M89.8552 65.9569C89.8221 65.7415 89.7468 65.5346 89.6336 65.3483C89.5205 65.162 89.3717 64.9998 89.1958 64.8711C89.0199 64.7424 88.8203 64.6497 88.6085 64.5983C88.3967 64.5468 88.1769 64.5377 87.9616 64.5715L84.9802 65.0343L80.0638 52.9738C79.9393 52.6686 79.7268 52.4074 79.4533 52.2235C79.1799 52.0396 78.8579 51.9414 78.5284 51.9413L66.2644 51.9334L66.0016 47.3622H73.534C73.9742 47.3622 74.3963 47.1873 74.7075 46.8759C75.0188 46.5645 75.1936 46.1422 75.1936 45.7018C75.1936 45.2614 75.0188 44.8391 74.7075 44.5277C74.3963 44.2163 73.9742 44.0414 73.534 44.0414H65.8102L65.4748 38.2065C66.3623 38.1496 67.2052 37.7973 67.8696 37.2059C68.534 36.6144 68.9816 35.8177 69.1413 34.9424C69.301 34.0671 69.1635 33.1636 68.7508 32.3754C68.3381 31.5873 67.6739 30.9599 66.8637 30.5929C66.0536 30.226 65.144 30.1406 64.2798 30.3504C63.4156 30.5602 62.6463 31.053 62.0942 31.7506C61.5422 32.4482 61.2392 33.3104 61.2333 34.2001C61.2275 35.0898 61.5192 35.956 62.062 36.6607L63.04 53.6881C63.0633 54.1116 63.248 54.5101 63.5561 54.8015C63.8641 55.093 64.272 55.2552 64.696 55.2549L77.4118 55.2627L82.4026 67.5009C82.5273 67.8061 82.74 68.0673 83.0135 68.2511C83.287 68.435 83.6091 68.5333 83.9386 68.5334C84.0242 68.5331 84.1096 68.5263 84.1942 68.513L88.4704 67.8485C88.6855 67.8153 88.892 67.7401 89.078 67.627C89.264 67.514 89.4259 67.3654 89.5545 67.1898C89.6831 67.0141 89.7759 66.8148 89.8275 66.6033C89.8791 66.3918 89.8885 66.1721 89.8552 65.9569V65.9569Z" fill="white"/>
<path d="M48.3616 77.7197H44.9362C44.9146 77.7199 44.8938 77.7285 44.8785 77.7438C44.8631 77.759 44.8543 77.7797 44.854 77.8014V87.8719C44.854 87.8937 44.8627 87.9146 44.8781 87.9301C44.8935 87.9455 44.9144 87.9541 44.9362 87.9541H46.5952C46.617 87.9541 46.6379 87.9455 46.6533 87.9301C46.6687 87.9146 46.6774 87.8937 46.6774 87.8719V84.1351H48.361C50.4808 84.1351 51.4312 82.5233 51.4312 80.9265C51.4312 79.3297 50.482 77.7197 48.3616 77.7197ZM46.678 79.3483H48.166C49.0144 79.3483 49.5628 79.9666 49.5628 80.9259C49.5628 81.8852 49.0144 82.5083 48.166 82.5083H46.678V79.3483Z" fill="white"/>
<path d="M56.485 77.778C56.4804 77.7607 56.4701 77.7454 56.4559 77.7346C56.4417 77.7237 56.4243 77.7179 56.4064 77.7179H54.4144C54.3966 77.718 54.3793 77.7239 54.3652 77.7347C54.3511 77.7456 54.341 77.7608 54.3364 77.778L51.3178 87.8509C51.3142 87.863 51.3134 87.8757 51.3156 87.8881C51.3178 87.9005 51.3229 87.9123 51.3304 87.9223C51.3381 87.9328 51.3481 87.9413 51.3597 87.9472C51.3712 87.953 51.384 87.956 51.397 87.956H53.1928C53.2107 87.9559 53.228 87.9501 53.2422 87.9392C53.2564 87.9284 53.2667 87.9132 53.2714 87.8959L53.8114 85.963H57.0076L57.5476 87.8959C57.5524 87.9133 57.5627 87.9286 57.577 87.9394C57.5913 87.9503 57.6088 87.9561 57.6268 87.956H59.4268C59.4486 87.956 59.4695 87.9473 59.4849 87.9319C59.5003 87.9165 59.509 87.8955 59.509 87.8737C59.5088 87.8573 59.5041 87.8413 59.4952 87.8275L56.485 77.778ZM56.6308 84.317H54.19L55.4104 79.8916L56.6308 84.317Z" fill="white"/>
<path d="M65.4718 83.8325C66.385 83.5468 67.3252 82.6427 67.3252 80.9121C67.3252 79.032 66.0742 77.7197 64.285 77.7197H60.814C60.7924 77.7199 60.7717 77.7285 60.7565 77.7438C60.7412 77.7591 60.7326 77.7798 60.7324 77.8014V87.8719C60.7323 87.8827 60.7344 87.8934 60.7384 87.9033C60.7425 87.9133 60.7485 87.9224 60.7561 87.93C60.7637 87.9377 60.7727 87.9437 60.7826 87.9479C60.7926 87.952 60.8032 87.9542 60.814 87.9542H62.4742C62.4959 87.954 62.5166 87.9453 62.5319 87.9299C62.5472 87.9145 62.5558 87.8936 62.5558 87.8719V84.1501H63.6736L65.3722 87.9073C65.3787 87.9216 65.3892 87.9337 65.4024 87.9421C65.4156 87.9505 65.4309 87.9549 65.4466 87.9548H67.3222C67.344 87.9548 67.3649 87.9461 67.3803 87.9307C67.3957 87.9152 67.4044 87.8943 67.4044 87.8725C67.4043 87.8517 67.3961 87.8316 67.3816 87.8167L65.4718 83.8325ZM62.5564 79.3483H64.0444C64.8928 79.3483 65.4412 79.9666 65.4412 80.9259C65.4412 81.8852 64.8928 82.5083 64.0444 82.5083H62.5564V79.3483Z" fill="white"/>
<path d="M72.8374 82.5581L76.0948 77.8482C76.1031 77.8358 76.108 77.8215 76.109 77.8066C76.1099 77.7917 76.1069 77.7769 76.1002 77.7635C76.0937 77.7501 76.0834 77.7388 76.0706 77.7311C76.0579 77.7233 76.0431 77.7194 76.0282 77.7197H74.08C74.0665 77.7198 74.0532 77.7232 74.0414 77.7297C74.0295 77.7362 74.0195 77.7456 74.0122 77.7569L71.0086 82.372V77.8014C71.0083 77.7797 70.9995 77.759 70.9841 77.7438C70.9688 77.7285 70.9481 77.7199 70.9264 77.7197H69.2686C69.2469 77.7197 69.2261 77.7283 69.2107 77.7436C69.1953 77.7589 69.1866 77.7796 69.1864 77.8014V87.8719C69.1864 87.8937 69.1951 87.9146 69.2105 87.9301C69.2259 87.9455 69.2468 87.9541 69.2686 87.9541H70.9276C70.9494 87.954 70.9702 87.9453 70.9856 87.9299C71.0009 87.9145 71.0096 87.8937 71.0098 87.8719V84.9095L71.7088 83.8727L74.2378 87.9175C74.2453 87.9291 74.2555 87.9386 74.2675 87.9453C74.2796 87.952 74.2931 87.9556 74.3068 87.956H76.2868C76.3086 87.956 76.3295 87.9473 76.3449 87.9319C76.3603 87.9164 76.369 87.8955 76.369 87.8737C76.3685 87.8622 76.3656 87.851 76.3605 87.8406C76.3555 87.8303 76.3484 87.8211 76.3396 87.8137L72.8374 82.5581Z" fill="white"/>
<path d="M79.3948 77.7197H77.7352C77.7135 77.7197 77.6927 77.7283 77.6773 77.7436C77.6619 77.7589 77.6532 77.7796 77.653 77.8014V87.8719C77.653 87.8937 77.6617 87.9146 77.6771 87.9301C77.6925 87.9455 77.7134 87.9541 77.7352 87.9541H79.3948C79.4166 87.9541 79.4375 87.9455 79.4529 87.9301C79.4683 87.9146 79.477 87.8937 79.477 87.8719V77.8014C79.4768 77.7796 79.4681 77.7589 79.4527 77.7436C79.4373 77.7283 79.4165 77.7197 79.3948 77.7197V77.7197Z" fill="white"/>
<path d="M88.7368 77.7197H87.0616C87.04 77.7199 87.0192 77.7285 87.0039 77.7438C86.9885 77.759 86.9797 77.7797 86.9794 77.8014V84.0829L83.4664 77.7617C83.4593 77.7489 83.4488 77.7382 83.4362 77.7308C83.4235 77.7234 83.4091 77.7196 83.3944 77.7197H81.7048C81.6831 77.7197 81.6623 77.7283 81.6469 77.7436C81.6315 77.7589 81.6228 77.7796 81.6226 77.8014V87.8719C81.6226 87.8937 81.6313 87.9146 81.6467 87.9301C81.6621 87.9455 81.683 87.9542 81.7048 87.9542H83.3644C83.3862 87.9542 83.4071 87.9455 83.4225 87.9301C83.4379 87.9146 83.4466 87.8937 83.4466 87.8719V81.3947L87.0652 87.9109C87.0723 87.9238 87.0827 87.9346 87.0954 87.9421C87.108 87.9496 87.1225 87.9536 87.1372 87.9536H88.7368C88.7586 87.9536 88.7795 87.9449 88.7949 87.9295C88.8103 87.914 88.819 87.8931 88.819 87.8713V77.8014C88.8188 77.7796 88.8101 77.7589 88.7947 77.7436C88.7793 77.7283 88.7585 77.7197 88.7368 77.7197V77.7197Z" fill="white"/>
<path d="M98.0638 82.4302H94.3528C94.331 82.4302 94.3101 82.4389 94.2947 82.4543C94.2792 82.4697 94.2706 82.4907 94.2706 82.5125V83.9766C94.2706 83.9984 94.2792 84.0193 94.2947 84.0347C94.3101 84.0502 94.331 84.0588 94.3528 84.0588H96.4132V85.8177C96.1132 86.1479 95.5324 86.4912 94.7932 86.4912C93.3766 86.4912 92.4604 85.0595 92.4604 82.8438C92.4604 80.6281 93.3766 79.1964 94.7932 79.1964C95.5354 79.1964 96.1732 79.6479 96.5902 80.4649C96.5997 80.4843 96.6166 80.4991 96.6371 80.5061C96.6576 80.5131 96.68 80.5116 96.6994 80.5021L98.0428 79.8532C98.0524 79.8486 98.061 79.8421 98.0681 79.8342C98.0752 79.8263 98.0807 79.817 98.0842 79.8069C98.0906 79.7872 98.0893 79.7658 98.0806 79.7469C97.3828 78.3134 96.2458 77.5564 94.7926 77.5564C92.2792 77.5564 90.5926 79.6827 90.5926 82.848C90.5926 86.0134 92.281 88.139 94.7926 88.139C96.1288 88.139 97.2832 87.5988 98.1304 86.5681C98.1425 86.5539 98.1491 86.5357 98.149 86.517V82.5155C98.1494 82.5042 98.1475 82.4929 98.1434 82.4824C98.1392 82.4718 98.133 82.4623 98.125 82.4543C98.117 82.4463 98.1074 82.44 98.0969 82.4359C98.0864 82.4317 98.0751 82.4298 98.0638 82.4302Z" fill="white"/>
<path d="M59.704 91.8933C57.2356 91.8933 55.5772 94.0195 55.5772 97.1843C55.5772 100.349 57.2368 102.475 59.704 102.475C62.1712 102.475 63.844 100.35 63.844 97.1843C63.844 94.0189 62.1814 91.8933 59.704 91.8933ZM59.704 100.832C58.3324 100.832 57.4468 99.3994 57.4468 97.1843C57.4468 94.9692 58.3324 93.5369 59.704 93.5369C61.0756 93.5369 61.96 94.9686 61.96 97.1843C61.96 99.4 61.075 100.832 59.704 100.832Z" fill="white"/>
<path d="M72.73 92.0596H71.0542C71.0324 92.0596 71.0115 92.0682 70.9961 92.0837C70.9807 92.0991 70.972 92.12 70.972 92.1418V98.4227L67.4584 92.1016C67.4513 92.0888 67.441 92.0782 67.4284 92.0708C67.4159 92.0634 67.4016 92.0596 67.387 92.0596H65.6968C65.675 92.0596 65.6541 92.0682 65.6387 92.0837C65.6233 92.0991 65.6146 92.12 65.6146 92.1418V102.213C65.6148 102.235 65.6235 102.255 65.6389 102.271C65.6543 102.286 65.6751 102.295 65.6968 102.295H67.3564C67.378 102.294 67.3987 102.286 67.4139 102.27C67.4292 102.255 67.4378 102.235 67.438 102.213V95.7352L71.0578 102.253C71.065 102.265 71.0754 102.276 71.0881 102.283C71.1007 102.291 71.1151 102.295 71.1298 102.295H72.7294C72.751 102.294 72.7717 102.286 72.7869 102.27C72.8022 102.255 72.8108 102.235 72.811 102.213V92.1418C72.8112 92.131 72.8093 92.1203 72.8053 92.1103C72.8014 92.1003 72.7954 92.0912 72.7879 92.0835C72.7803 92.0759 72.7713 92.0698 72.7614 92.0657C72.7514 92.0616 72.7408 92.0595 72.73 92.0596Z" fill="white"/>
<path d="M80.1556 100.665H76.72V92.1412C76.72 92.1194 76.7113 92.0985 76.6959 92.0831C76.6805 92.0676 76.6596 92.059 76.6378 92.059H74.98C74.9582 92.059 74.9373 92.0676 74.9219 92.0831C74.9065 92.0985 74.8978 92.1194 74.8978 92.1412V102.212C74.8981 102.234 74.9069 102.255 74.9223 102.27C74.9376 102.285 74.9583 102.294 74.98 102.294H80.1556C80.1773 102.294 80.1981 102.285 80.2135 102.27C80.2289 102.255 80.2376 102.234 80.2378 102.212V100.748C80.2378 100.726 80.2291 100.705 80.2137 100.689C80.1983 100.674 80.1774 100.665 80.1556 100.665Z" fill="white"/>
<path d="M87.4108 92.0992C87.4036 92.0871 87.3934 92.0771 87.3812 92.0701C87.369 92.063 87.3553 92.0592 87.3412 92.059H85.4992C85.4838 92.0591 85.4688 92.0635 85.4558 92.0717C85.4428 92.0799 85.4323 92.0914 85.4254 92.1052L83.3854 96.2581L81.3454 92.1052C81.3387 92.0913 81.3282 92.0796 81.3152 92.0714C81.3021 92.0632 81.287 92.0589 81.2716 92.059H79.4302C79.4161 92.059 79.4022 92.0627 79.39 92.0698C79.3778 92.0768 79.3677 92.087 79.3606 92.0992C79.3538 92.1115 79.3503 92.1254 79.3503 92.1394C79.3503 92.1535 79.3538 92.1673 79.3606 92.1796L82.4758 98.0355V102.211C82.4757 102.222 82.4778 102.233 82.4818 102.243C82.4859 102.253 82.4919 102.262 82.4995 102.269C82.5071 102.277 82.5161 102.283 82.526 102.287C82.536 102.291 82.5466 102.293 82.5574 102.293H84.22C84.2308 102.293 84.2414 102.291 84.2514 102.287C84.2613 102.283 84.2703 102.277 84.2779 102.269C84.2855 102.262 84.2915 102.253 84.2956 102.243C84.2996 102.233 84.3017 102.222 84.3016 102.211V98.0355L87.4162 92.1796C87.4225 92.1669 87.4253 92.1528 87.4243 92.1387C87.4234 92.1246 87.4187 92.111 87.4108 92.0992Z" fill="white"/>
<path d="M181 151.906C181 154.158 179.819 156 178.375 156H120.625C119.181 156 118 154.158 118 151.906V29.094C118 26.8417 119.181 25 120.625 25H178.375C179.819 25 181 26.8417 181 29.094V151.906Z" fill="#325AAA"/>
<path d="M144.731 69.4903C139.058 69.4903 134.444 64.8728 134.444 59.1976C134.445 57.534 134.849 55.8954 135.621 54.4222C136.394 52.9491 137.512 51.6854 138.88 50.7395L138.666 47.0176C134.2 49.2519 131.125 53.8742 131.125 59.1976C131.125 66.7013 137.229 72.8105 144.731 72.8105C150.251 72.8105 155.006 69.5059 157.139 64.7732L155.01 59.5506C154.823 65.0625 150.285 69.4903 144.731 69.4903Z" fill="white"/>
<path d="M167.855 65.9569C167.822 65.7415 167.747 65.5346 167.634 65.3483C167.52 65.162 167.372 64.9998 167.196 64.8711C167.02 64.7424 166.82 64.6497 166.609 64.5983C166.397 64.5468 166.177 64.5377 165.962 64.5715L162.98 65.0343L158.064 52.9738C157.939 52.6686 157.727 52.4074 157.453 52.2235C157.18 52.0396 156.858 51.9414 156.528 51.9413L144.264 51.9334L144.002 47.3622H151.534C151.974 47.3622 152.396 47.1873 152.708 46.8759C153.019 46.5645 153.194 46.1422 153.194 45.7018C153.194 45.2614 153.019 44.8391 152.708 44.5277C152.396 44.2163 151.974 44.0414 151.534 44.0414H143.81L143.475 38.2065C144.362 38.1496 145.205 37.7973 145.87 37.2059C146.534 36.6144 146.982 35.8177 147.141 34.9424C147.301 34.0671 147.164 33.1636 146.751 32.3754C146.338 31.5873 145.674 30.9599 144.864 30.5929C144.054 30.226 143.144 30.1406 142.28 30.3504C141.416 30.5602 140.646 31.053 140.094 31.7506C139.542 32.4482 139.239 33.3104 139.233 34.2001C139.228 35.0898 139.519 35.956 140.062 36.6607L141.04 53.6881C141.063 54.1116 141.248 54.5101 141.556 54.8015C141.864 55.093 142.272 55.2552 142.696 55.2549L155.412 55.2627L160.403 67.5009C160.527 67.8061 160.74 68.0673 161.013 68.2511C161.287 68.435 161.609 68.5333 161.939 68.5334C162.024 68.5331 162.11 68.5263 162.194 68.513L166.47 67.8485C166.686 67.8153 166.892 67.7401 167.078 67.627C167.264 67.514 167.426 67.3654 167.555 67.1898C167.683 67.0141 167.776 66.8148 167.827 66.6033C167.879 66.3918 167.888 66.1721 167.855 65.9569V65.9569Z" fill="white"/>
<path d="M126.362 77.7197H122.936C122.915 77.7199 122.894 77.7285 122.878 77.7438C122.863 77.759 122.854 77.7797 122.854 77.8014V87.8719C122.854 87.8937 122.863 87.9146 122.878 87.9301C122.893 87.9455 122.914 87.9541 122.936 87.9541H124.595C124.617 87.9541 124.638 87.9455 124.653 87.9301C124.669 87.9146 124.677 87.8937 124.677 87.8719V84.1351H126.361C128.481 84.1351 129.431 82.5233 129.431 80.9265C129.431 79.3297 128.482 77.7197 126.362 77.7197ZM124.678 79.3483H126.166C127.014 79.3483 127.563 79.9666 127.563 80.9259C127.563 81.8852 127.014 82.5083 126.166 82.5083H124.678V79.3483Z" fill="white"/>
<path d="M134.485 77.778C134.48 77.7607 134.47 77.7454 134.456 77.7346C134.442 77.7237 134.424 77.7179 134.406 77.7179H132.414C132.397 77.718 132.379 77.7239 132.365 77.7347C132.351 77.7456 132.341 77.7608 132.336 77.778L129.318 87.8509C129.314 87.863 129.313 87.8757 129.316 87.8881C129.318 87.9005 129.323 87.9123 129.33 87.9223C129.338 87.9328 129.348 87.9413 129.36 87.9472C129.371 87.953 129.384 87.956 129.397 87.956H131.193C131.211 87.9559 131.228 87.9501 131.242 87.9392C131.256 87.9284 131.267 87.9132 131.271 87.8959L131.811 85.963H135.008L135.548 87.8959C135.552 87.9133 135.563 87.9286 135.577 87.9394C135.591 87.9503 135.609 87.9561 135.627 87.956H137.427C137.449 87.956 137.47 87.9473 137.485 87.9319C137.5 87.9165 137.509 87.8955 137.509 87.8737C137.509 87.8573 137.504 87.8413 137.495 87.8275L134.485 77.778ZM134.631 84.317H132.19L133.41 79.8916L134.631 84.317Z" fill="white"/>
<path d="M143.472 83.8325C144.385 83.5468 145.325 82.6427 145.325 80.9121C145.325 79.032 144.074 77.7197 142.285 77.7197H138.814C138.792 77.7199 138.772 77.7285 138.756 77.7438C138.741 77.7591 138.733 77.7798 138.732 77.8014V87.8719C138.732 87.8827 138.734 87.8934 138.738 87.9033C138.742 87.9133 138.748 87.9224 138.756 87.93C138.764 87.9377 138.773 87.9437 138.783 87.9479C138.793 87.952 138.803 87.9542 138.814 87.9542H140.474C140.496 87.954 140.517 87.9453 140.532 87.9299C140.547 87.9145 140.556 87.8936 140.556 87.8719V84.1501H141.674L143.372 87.9073C143.379 87.9216 143.389 87.9337 143.402 87.9421C143.416 87.9505 143.431 87.9549 143.447 87.9548H145.322C145.344 87.9548 145.365 87.9461 145.38 87.9307C145.396 87.9152 145.404 87.8943 145.404 87.8725C145.404 87.8517 145.396 87.8316 145.382 87.8167L143.472 83.8325ZM140.556 79.3483H142.044C142.893 79.3483 143.441 79.9666 143.441 80.9259C143.441 81.8852 142.893 82.5083 142.044 82.5083H140.556V79.3483Z" fill="white"/>
<path d="M150.837 82.5581L154.095 77.8482C154.103 77.8358 154.108 77.8215 154.109 77.8066C154.11 77.7917 154.107 77.7769 154.1 77.7635C154.094 77.7501 154.083 77.7388 154.071 77.7311C154.058 77.7233 154.043 77.7194 154.028 77.7197H152.08C152.066 77.7198 152.053 77.7232 152.041 77.7297C152.03 77.7362 152.02 77.7456 152.012 77.7569L149.009 82.372V77.8014C149.008 77.7797 149 77.759 148.984 77.7438C148.969 77.7285 148.948 77.7199 148.926 77.7197H147.269C147.247 77.7197 147.226 77.7283 147.211 77.7436C147.195 77.7589 147.187 77.7796 147.186 77.8014V87.8719C147.186 87.8937 147.195 87.9146 147.21 87.9301C147.226 87.9455 147.247 87.9541 147.269 87.9541H148.928C148.949 87.954 148.97 87.9453 148.986 87.9299C149.001 87.9145 149.01 87.8937 149.01 87.8719V84.9095L149.709 83.8727L152.238 87.9175C152.245 87.9291 152.256 87.9386 152.268 87.9453C152.28 87.952 152.293 87.9556 152.307 87.956H154.287C154.309 87.956 154.33 87.9473 154.345 87.9319C154.36 87.9164 154.369 87.8955 154.369 87.8737C154.368 87.8622 154.366 87.851 154.361 87.8406C154.355 87.8303 154.348 87.8211 154.34 87.8137L150.837 82.5581Z" fill="white"/>
<path d="M157.395 77.7197H155.735C155.714 77.7197 155.693 77.7283 155.677 77.7436C155.662 77.7589 155.653 77.7796 155.653 77.8014V87.8719C155.653 87.8937 155.662 87.9146 155.677 87.9301C155.692 87.9455 155.713 87.9541 155.735 87.9541H157.395C157.417 87.9541 157.438 87.9455 157.453 87.9301C157.468 87.9146 157.477 87.8937 157.477 87.8719V77.8014C157.477 77.7796 157.468 77.7589 157.453 77.7436C157.437 77.7283 157.416 77.7197 157.395 77.7197V77.7197Z" fill="white"/>
<path d="M166.737 77.7197H165.062C165.04 77.7199 165.019 77.7285 165.004 77.7438C164.988 77.759 164.98 77.7797 164.979 77.8014V84.0829L161.466 77.7617C161.459 77.7489 161.449 77.7382 161.436 77.7308C161.424 77.7234 161.409 77.7196 161.394 77.7197H159.705C159.683 77.7197 159.662 77.7283 159.647 77.7436C159.631 77.7589 159.623 77.7796 159.623 77.8014V87.8719C159.623 87.8937 159.631 87.9146 159.647 87.9301C159.662 87.9455 159.683 87.9542 159.705 87.9542H161.364C161.386 87.9542 161.407 87.9455 161.423 87.9301C161.438 87.9146 161.447 87.8937 161.447 87.8719V81.3947L165.065 87.9109C165.072 87.9238 165.083 87.9346 165.095 87.9421C165.108 87.9496 165.122 87.9536 165.137 87.9536H166.737C166.759 87.9536 166.78 87.9449 166.795 87.9295C166.81 87.914 166.819 87.8931 166.819 87.8713V77.8014C166.819 77.7796 166.81 77.7589 166.795 77.7436C166.779 77.7283 166.759 77.7197 166.737 77.7197V77.7197Z" fill="white"/>
<path d="M176.064 82.4302H172.353C172.331 82.4302 172.31 82.4389 172.295 82.4543C172.279 82.4697 172.271 82.4907 172.271 82.5125V83.9766C172.271 83.9984 172.279 84.0193 172.295 84.0347C172.31 84.0502 172.331 84.0588 172.353 84.0588H174.413V85.8177C174.113 86.1479 173.532 86.4912 172.793 86.4912C171.377 86.4912 170.46 85.0595 170.46 82.8438C170.46 80.6281 171.377 79.1964 172.793 79.1964C173.535 79.1964 174.173 79.6479 174.59 80.4649C174.6 80.4843 174.617 80.4991 174.637 80.5061C174.658 80.5131 174.68 80.5116 174.699 80.5021L176.043 79.8532C176.052 79.8486 176.061 79.8421 176.068 79.8342C176.075 79.8263 176.081 79.817 176.084 79.8069C176.091 79.7872 176.089 79.7658 176.081 79.7469C175.383 78.3134 174.246 77.5564 172.793 77.5564C170.279 77.5564 168.593 79.6827 168.593 82.848C168.593 86.0134 170.281 88.139 172.793 88.139C174.129 88.139 175.283 87.5988 176.13 86.5681C176.143 86.5539 176.149 86.5357 176.149 86.517V82.5155C176.149 82.5042 176.147 82.4929 176.143 82.4824C176.139 82.4718 176.133 82.4623 176.125 82.4543C176.117 82.4463 176.107 82.44 176.097 82.4359C176.086 82.4317 176.075 82.4298 176.064 82.4302Z" fill="white"/>
<path d="M137.704 91.8933C135.236 91.8933 133.577 94.0195 133.577 97.1843C133.577 100.349 135.237 102.475 137.704 102.475C140.171 102.475 141.844 100.35 141.844 97.1843C141.844 94.0189 140.181 91.8933 137.704 91.8933ZM137.704 100.832C136.332 100.832 135.447 99.3994 135.447 97.1843C135.447 94.9692 136.332 93.5369 137.704 93.5369C139.076 93.5369 139.96 94.9686 139.96 97.1843C139.96 99.4 139.075 100.832 137.704 100.832Z" fill="white"/>
<path d="M150.73 92.0596H149.054C149.032 92.0596 149.011 92.0682 148.996 92.0837C148.981 92.0991 148.972 92.12 148.972 92.1418V98.4227L145.458 92.1016C145.451 92.0888 145.441 92.0782 145.428 92.0708C145.416 92.0634 145.402 92.0596 145.387 92.0596H143.697C143.675 92.0596 143.654 92.0682 143.639 92.0837C143.623 92.0991 143.615 92.12 143.615 92.1418V102.213C143.615 102.235 143.623 102.255 143.639 102.271C143.654 102.286 143.675 102.295 143.697 102.295H145.356C145.378 102.294 145.399 102.286 145.414 102.27C145.429 102.255 145.438 102.235 145.438 102.213V95.7352L149.058 102.253C149.065 102.265 149.075 102.276 149.088 102.283C149.101 102.291 149.115 102.295 149.13 102.295H150.729C150.751 102.294 150.772 102.286 150.787 102.27C150.802 102.255 150.811 102.235 150.811 102.213V92.1418C150.811 92.131 150.809 92.1203 150.805 92.1103C150.801 92.1003 150.795 92.0912 150.788 92.0835C150.78 92.0759 150.771 92.0698 150.761 92.0657C150.751 92.0616 150.741 92.0595 150.73 92.0596Z" fill="white"/>
<path d="M158.156 100.665H154.72V92.1412C154.72 92.1194 154.711 92.0985 154.696 92.0831C154.681 92.0676 154.66 92.059 154.638 92.059H152.98C152.958 92.059 152.937 92.0676 152.922 92.0831C152.906 92.0985 152.898 92.1194 152.898 92.1412V102.212C152.898 102.234 152.907 102.255 152.922 102.27C152.938 102.285 152.958 102.294 152.98 102.294H158.156C158.177 102.294 158.198 102.285 158.214 102.27C158.229 102.255 158.238 102.234 158.238 102.212V100.748C158.238 100.726 158.229 100.705 158.214 100.689C158.198 100.674 158.177 100.665 158.156 100.665Z" fill="white"/>
<path d="M165.411 92.0992C165.404 92.0871 165.393 92.0771 165.381 92.0701C165.369 92.063 165.355 92.0592 165.341 92.059H163.499C163.484 92.0591 163.469 92.0635 163.456 92.0717C163.443 92.0799 163.432 92.0914 163.425 92.1052L161.385 96.2581L159.345 92.1052C159.339 92.0913 159.328 92.0796 159.315 92.0714C159.302 92.0632 159.287 92.0589 159.272 92.059H157.43C157.416 92.059 157.402 92.0627 157.39 92.0698C157.378 92.0768 157.368 92.087 157.361 92.0992C157.354 92.1115 157.35 92.1254 157.35 92.1394C157.35 92.1535 157.354 92.1673 157.361 92.1796L160.476 98.0355V102.211C160.476 102.222 160.478 102.233 160.482 102.243C160.486 102.253 160.492 102.262 160.499 102.269C160.507 102.277 160.516 102.283 160.526 102.287C160.536 102.291 160.547 102.293 160.557 102.293H162.22C162.231 102.293 162.241 102.291 162.251 102.287C162.261 102.283 162.27 102.277 162.278 102.269C162.285 102.262 162.291 102.253 162.296 102.243C162.3 102.233 162.302 102.222 162.302 102.211V98.0355L165.416 92.1796C165.422 92.1669 165.425 92.1528 165.424 92.1387C165.423 92.1246 165.419 92.111 165.411 92.0992Z" fill="white"/>
<path d="M347 26H411V154H347V26Z" fill="#C4C4C4" stroke="#36CFFF" stroke-width="2"/>
<path fill-rule="evenodd" clip-rule="evenodd" d="M410.343 25H406L346 85V89.3431L410.343 25ZM346 95V99.3431L412 33.3431V29L346 95ZM346 105V109.343L412 43.3431V39L346 105ZM346 119.343V115L412 49V53.3431L346 119.343ZM346 125L412 59V63.3431L346 129.343V125ZM346 139.343V135L412 69V73.3431L346 139.343ZM346 149.343L412 83.3431V79L346 145V149.343ZM412 89V93.3431L350.343 155H346L412 89ZM412 99L356 155H360.343L412 103.343V99ZM390.343 155H386L412 129V133.343L390.343 155ZM406 155H412V149L406 155ZM400.343 155H396L412 139V143.343L400.343 155ZM366 155H370.343L412 113.343V109L366 155ZM412 119L376 155H380.343L412 123.343V119ZM376 25H380.343L346 59.3431V55L376 25ZM346 69.3431V65L386 25H390.343L346 69.3431ZM400.343 25H396L346 75V79.3431L400.343 25ZM350.343 25H346V29.3431L350.343 25ZM346 35V39.3431L360.343 25H356L346 35ZM366 25H370.343L346 49.3431V45L366 25Z" fill="#80FF00" fill-opacity="0.8"/>
<path d="M270 26H334V154H270V26Z" fill="#C4C4C4" stroke="#36CFFF" stroke-width="2"/>
<path fill-rule="evenodd" clip-rule="evenodd" d="M333.343 25H329L269 85V89.3431L333.343 25ZM269 95V99.3431L335 33.3431V29L269 95ZM269 105V109.343L335 43.3431V39L269 105ZM269 119.343V115L335 49V53.3431L269 119.343ZM269 125L335 59V63.3431L269 129.343V125ZM269 139.343V135L335 69V73.3431L269 139.343ZM269 149.343L335 83.3431V79L269 145V149.343ZM335 89V93.3431L273.343 155H269L335 89ZM335 99L279 155H283.343L335 103.343V99ZM313.343 155H309L335 129V133.343L313.343 155ZM329 155H335V149L329 155ZM323.343 155H319L335 139V143.343L323.343 155ZM289 155H293.343L335 113.343V109L289 155ZM335 119L299 155H303.343L335 123.343V119ZM299 25H303.343L269 59.3431V55L299 25ZM269 69.3431V65L309 25H313.343L269 69.3431ZM323.343 25H319L269 75V79.3431L323.343 25ZM273.343 25H269V29.3431L273.343 25ZM269 35V39.3431L283.343 25H279L269 35ZM289 25H293.343L269 49.3431V45L289 25Z" fill="#80FF00" fill-opacity="0.8"/>
<path d="M193 26H257V154H193V26Z" fill="#C4C4C4" stroke="#36CFFF" stroke-width="2"/>
<path fill-rule="evenodd" clip-rule="evenodd" d="M256.343 25H252L192 85V89.3431L256.343 25ZM192 95V99.3431L258 33.3431V29L192 95ZM192 105V109.343L258 43.3431V39L192 105ZM192 119.343V115L258 49V53.3431L192 119.343ZM192 125L258 59V63.3431L192 129.343V125ZM192 139.343V135L258 69V73.3431L192 139.343ZM192 149.343L258 83.3431V79L192 145V149.343ZM258 89V93.3431L196.343 155H192L258 89ZM258 99L202 155H206.343L258 103.343V99ZM236.343 155H232L258 129V133.343L236.343 155ZM252 155H258V149L252 155ZM246.343 155H242L258 139V143.343L246.343 155ZM212 155H216.343L258 113.343V109L212 155ZM258 119L222 155H226.343L258 123.343V119ZM222 25H226.343L192 59.3431V55L222 25ZM192 69.3431V65L232 25H236.343L192 69.3431ZM246.343 25H242L192 75V79.3431L246.343 25ZM196.343 25H192V29.3431L196.343 25ZM192 35V39.3431L206.343 25H202L192 35ZM212 25H216.343L192 49.3431V45L212 25Z" fill="#80FF00" fill-opacity="0.8"/>
<path d="M116 26H180V154H116V26Z" fill="#C4C4C4" stroke="#36CFFF" stroke-width="2"/>
<path fill-rule="evenodd" clip-rule="evenodd" d="M179.343 25H175L115 85V89.3431L179.343 25ZM115 95V99.3431L181 33.3431V29L115 95ZM115 105V109.343L181 43.3431V39L115 105ZM115 119.343V115L181 49V53.3431L115 119.343ZM115 125L181 59V63.3431L115 129.343V125ZM115 139.343V135L181 69V73.3431L115 139.343ZM115 149.343L181 83.3431V79L115 145V149.343ZM181 89V93.3431L119.343 155H115L181 89ZM181 99L125 155H129.343L181 103.343V99ZM159.343 155H155L181 129V133.343L159.343 155ZM175 155H181V149L175 155ZM169.343 155H165L181 139V143.343L169.343 155ZM135 155H139.343L181 113.343V109L135 155ZM181 119L145 155H149.343L181 123.343V119ZM145 25H149.343L115 59.3431V55L145 25ZM115 69.3431V65L155 25H159.343L115 69.3431ZM169.343 25H165L115 75V79.3431L169.343 25ZM119.343 25H115V29.3431L119.343 25ZM115 35V39.3431L129.343 25H125L115 35ZM135 25H139.343L115 49.3431V45L135 25Z" fill="#80FF00" fill-opacity="0.8"/>
<path d="M40 26H104V154H40V26Z" fill="#C4C4C4" stroke="#36CFFF" stroke-width="2"/>
<path fill-rule="evenodd" clip-rule="evenodd" d="M103.343 25H99L39 85V89.3431L103.343 25ZM39 95V99.3431L105 33.3431V29L39 95ZM39 105V109.343L105 43.3431V39L39 105ZM39 119.343V115L105 49V53.3431L39 119.343ZM39 125L105 59V63.3431L39 129.343V125ZM39 139.343V135L105 69V73.3431L39 139.343ZM39 149.343L105 83.3431V79L39 145V149.343ZM105 89V93.3431L43.3431 155H39L105 89ZM105 99L49 155H53.3431L105 103.343V99ZM83.3431 155H79L105 129V133.343L83.3431 155ZM99 155H105V149L99 155ZM93.3431 155H89L105 139V143.343L93.3431 155ZM59 155H63.3431L105 113.343V109L59 155ZM105 119L69 155H73.3431L105 123.343V119ZM69 25H73.3431L39 59.3431V55L69 25ZM39 69.3431V65L79 25H83.3431L39 69.3431ZM93.3431 25H89L39 75V79.3431L93.3431 25ZM43.3431 25H39V29.3431L43.3431 25ZM39 35V39.3431L53.3431 25H49L39 35ZM59 25H63.3431L39 49.3431V45L59 25Z" fill="#80FF00" fill-opacity="0.8"/>
<defs>
<clipPath id="clip0_6_306">
<rect width="88" height="7" fill="white" transform="translate(436 264) rotate(-90)"/>
</clipPath>
</defs>
</svg>
