<svg width="66" height="130" viewBox="0 0 66 130" fill="none" xmlns="http://www.w3.org/2000/svg">
<path fill-rule="evenodd" clip-rule="evenodd" d="M64.3431 0H60L0 60V64.3431L64.3431 0ZM0 70V74.3431L66 8.34314V4L0 70ZM0 80V84.3431L66 18.3431V14L0 80ZM0 94.3431V90L66 24V28.3431L0 94.3431ZM0 100L66 34V38.3431L0 104.343V100ZM0 114.343V110L66 44V48.3431L0 114.343ZM0 124.343L66 58.3431V54L0 120V124.343ZM66 64V68.3431L4.34314 130H0L66 64ZM66 74L10 130H14.3431L66 78.3431V74ZM44.3431 130H40L66 104V108.343L44.3431 130ZM60 130H66V124L60 130ZM54.3431 130H50L66 114V118.343L54.3431 130ZM20 130H24.3431L66 88.3431V84L20 130ZM66 94L30 130H34.3431L66 98.3431V94ZM30 0H34.3431L0 34.3431V30L30 0ZM0 44.3431V40L40 0H44.3431L0 44.3431ZM54.3431 0H50L0 50V54.3431L54.3431 0ZM4.34314 0H0V4.34315L4.34314 0ZM0 10V14.3431L14.3431 0H10L0 10ZM20 0H24.3431L0 24.3431V20L20 0Z" fill="#80FF00" fill-opacity="0.8"/>
</svg>
